{
  "accessors": [
    {
      "bufferView": 2,
      "componentType": 5126,
      "count": 4279,
      "max": [
        12.43923282623291,
        12.536629676818848,
        12.43923282623291
      ],
      "min": [
        -12.43923282623291,
        -2.384185791015625e-07,
        -12.439233779907227
      ],
      "type": "VEC3"
    },
    {
      "bufferView": 2,
      "byteOffset": 51348,
      "componentType": 5126,
      "count": 4279,
      "max": [
        1,
        1,
        1
      ],
      "min": [
        -1,
        -1,
        -1
      ],
      "type": "VEC3"
    },
    {
      "bufferView": 3,
      "componentType": 5126,
      "count": 4279,
      "max": [
        1,
        1,
        1,
        1
      ],
      "min": [
        -1,
        -1,
        -1,
        -1
      ],
      "type": "VEC4"
    },
    {
      "bufferView": 1,
      "componentType": 5126,
      "count": 4279,
      "max": [
        0.98818755149841309,
        0.99233609437942505
      ],
      "min": [
        0,
        0
      ],
      "type": "VEC2"
    },
    {
      "bufferView": 0,
      "componentType": 5125,
      "count": 7818,
      "max": [
        4278
      ],
      "min": [
        0
      ],
      "type": "SCALAR"
    },
    {
      "bufferView": 2,
      "byteOffset": 102696,
      "componentType": 5126,
      "count": 116,
      "max": [
        11.313173294067383,
        1.3591334819793701,
        11.288956642150879
      ],
      "min": [
        -10.300820350646973,
        -7.7715611723760958e-15,
        -10.418362617492676
      ],
      "type": "VEC3"
    },
    {
      "bufferView": 2,
      "byteOffset": 104088,
      "componentType": 5126,
      "count": 116,
      "max": [
        0.99511617422103882,
        0,
        0.48510897159576416
      ],
      "min": [
        -0.99510455131530762,
        0,
        -0.9904741644859314
      ],
      "type": "VEC3"
    },
    {
      "bufferView": 3,
      "byteOffset": 68464,
      "componentType": 5126,
      "count": 116,
      "max": [
        0.48510897159576416,
        0,
        0.99510449171066284,
        1
      ],
      "min": [
        -0.9904741644859314,
        0,
        -0.99511617422103882,
        1
      ],
      "type": "VEC4"
    },
    {
      "bufferView": 1,
      "byteOffset": 34232,
      "componentType": 5126,
      "count": 116,
      "max": [
        0.91414821147918701,
        0.58181858062744141
      ],
      "min": [
        0.085851818323135376,
        0.0055388268083333969
      ],
      "type": "VEC2"
    },
    {
      "bufferView": 1,
      "byteOffset": 35160,
      "componentType": 5126,
      "count": 116,
      "max": [
        0.91414821147918701,
        0.58181858062744141
      ],
      "min": [
        0.085851818323135376,
        0.0055388268083333969
      ],
      "type": "VEC2"
    },
    {
      "bufferView": 0,
      "byteOffset": 31272,
      "componentType": 5125,
      "count": 174,
      "max": [
        115
      ],
      "min": [
        0
      ],
      "type": "SCALAR"
    }
  ],
  "asset": {
    "extras": {
      "author": "Wesai (https://sketchfab.com/Wesai)",
      "license": "CC-BY-4.0 (http://creativecommons.org/licenses/by/4.0/)",
      "source": "https://sketchfab.com/3d-models/house-sketch-4623a16c935b411e851fd23f4cf31267",
      "title": "House Sketch"
    },
    "generator": "Sketchfab-5.50.0",
    "version": "2.0"
  },
  "bufferViews": [
    {
      "buffer": 0,
      "byteLength": 31968,
      "byteOffset": 0,
      "name": "floatBufferViews",
      "target": 34963
    },
    {
      "buffer": 0,
      "byteLength": 36088,
      "byteOffset": 31968,
      "byteStride": 8,
      "name": "floatBufferViews",
      "target": 34962
    },
    {
      "buffer": 0,
      "byteLength": 105480,
      "byteOffset": 68056,
      "byteStride": 12,
      "name": "floatBufferViews",
      "target": 34962
    },
    {
      "buffer": 0,
      "byteLength": 70320,
      "byteOffset": 173536,
      "byteStride": 16,
      "name": "floatBufferViews",
      "target": 34962
    }
  ],
  "buffers": [
    {
      "byteLength": 243856,
      "uri": "scene.bin"
    }
  ],
  "extensionsUsed": [
    "KHR_materials_unlit"
  ],
  "images": [
    {
      "uri": "textures/base_mat_baseColor.png"
    },
    {
      "uri": "textures/grass_mat_baseColor.png"
    }
  ],
  "materials": [
    {
      "alphaMode": "BLEND",
      "doubleSided": true,
      "extensions": {
        "KHR_materials_unlit": {}
      },
      "name": "base_mat",
      "pbrMetallicRoughness": {
        "baseColorFactor": [
          1,
          1,
          1,
          1
        ],
        "baseColorTexture": {
          "index": 0,
          "texCoord": 0
        },
        "metallicFactor": 0,
        "roughnessFactor": 1
      }
    },
    {
      "alphaMode": "BLEND",
      "doubleSided": true,
      "extensions": {
        "KHR_materials_unlit": {}
      },
      "name": "grass_mat",
      "pbrMetallicRoughness": {
        "baseColorFactor": [
          1,
          1,
          1,
          1
        ],
        "baseColorTexture": {
          "index": 1,
          "texCoord": 0
        },
        "metallicFactor": 0,
        "roughnessFactor": 1
      }
    }
  ],
  "meshes": [
    {
      "name": "house_mesh_base_mat_0",
      "primitives": [
        {
          "attributes": {
            "NORMAL": 1,
            "POSITION": 0,
            "TANGENT": 2,
            "TEXCOORD_0": 3
          },
          "indices": 4,
          "material": 0,
          "mode": 4
        }
      ]
    },
    {
      "name": "house_mesh_grass_mat_0",
      "primitives": [
        {
          "attributes": {
            "NORMAL": 6,
            "POSITION": 5,
            "TANGENT": 7,
            "TEXCOORD_0": 8,
            "TEXCOORD_1": 9
          },
          "indices": 10,
          "material": 1,
          "mode": 4
        }
      ]
    }
  ],
  "nodes": [
    {
      "children": [
        1
      ],
      "name": "RootNode (gltf orientation matrix)",
      "rotation": [
        -0.70710678118654746,
        -0,
        -0,
        0.70710678118654757
      ]
    },
    {
      "children": [
        2
      ],
      "name": "RootNode (model correction matrix)"
    },
    {
      "children": [
        3
      ],
      "matrix": [
        1,
        0,
        0,
        0,
        0,
        0,
        1,
        0,
        0,
        -1,
        0,
        0,
        0,
        0,
        0,
        1
      ],
      "name": "house_sketch.fbx"
    },
    {
      "children": [
        4
      ],
      "name": "RootNode"
    },
    {
      "children": [
        5,
        6
      ],
      "name": "house_mesh"
    },
    {
      "mesh": 0,
      "name": "house_mesh_base_mat_0"
    },
    {
      "mesh": 1,
      "name": "house_mesh_grass_mat_0"
    }
  ],
  "samplers": [
    {
      "magFilter": 9728,
      "minFilter": 9728,
      "wrapS": 10497,
      "wrapT": 10497
    }
  ],
  "scene": 0,
  "scenes": [
    {
      "name": "OSG_Scene",
      "nodes": [
        0
      ]
    }
  ],
  "textures": [
    {
      "sampler": 0,
      "source": 0
    },
    {
      "sampler": 0,
      "source": 1
    }
  ]
}

